<svg
  width="48"
  height="48"
  viewBox="0 0 48 48"
  fill="none"
  xmlns="http://www.w3.org/2000/svg"
  class="mm-icon"
>
  <path
    d="M6.91816 36.8216L8.69322 39.8877C9.06205 40.5331 9.59224 41.0403 10.2147 41.4091C11.9975 39.1461 13.2385 37.4095 13.9377 36.1992C14.6473 34.971 15.5194 33.05 16.5542 30.436C13.7657 30.069 11.6525 29.8855 10.2147 29.8855C8.83493 29.8855 6.72176 30.069 3.87518 30.436C3.87518 31.1507 4.05961 31.8653 4.42845 32.5108L6.91816 36.8216Z"
    fill="currentColor"
  />
  <path
    d="M37.7858 41.4091C38.4082 41.0403 38.9384 40.5331 39.3072 39.8877L40.0449 38.6198L43.572 32.5108C43.9408 31.8653 44.1252 31.1507 44.1252 30.436C41.2622 30.069 39.1529 29.8855 37.7973 29.8855C36.3404 29.8855 34.2311 30.069 31.4693 30.436C32.4918 33.0643 33.3525 34.9853 34.0512 36.1992C34.7561 37.4238 36.001 39.1604 37.7858 41.4091Z"
    fill="currentColor"
  />
  <path
    d="M24.0002 17.5264C26.063 15.035 27.4846 13.114 28.265 11.7632C28.8934 10.6755 29.5849 8.93887 30.3397 6.55327C29.7173 6.18442 29.0026 6 28.265 6H19.7355C18.9978 6 18.2831 6.20747 17.6607 6.55327C18.6208 9.28931 19.4354 11.2365 20.1046 12.3949C20.8442 13.675 22.1427 15.3855 24.0002 17.5264Z"
    fill="currentColor"
  />
  <path
    d="M31.4462 30.4359H16.5541L10.2147 41.409C10.8371 41.7779 11.5517 41.9622 12.2894 41.9622H35.711C36.4487 41.9622 37.1633 41.7548 37.7857 41.409L31.4462 30.4359Z"
    fill="currentColor"
  />
  <path
    d="M24.0002 17.5264L17.6607 6.55334C17.0383 6.92219 16.5081 7.42933 16.1392 8.07483L4.42845 28.3612C4.05961 29.0067 3.87518 29.7213 3.87518 30.436H16.5542L24.0002 17.5264Z"
    fill="currentColor"
  />
  <path
    d="M37.7164 18.4137L31.861 8.27051C31.4922 7.625 30.9619 7.11787 30.3395 6.74902L24 17.7221L31.446 30.6317H44.102C44.102 29.917 43.9176 29.2024 43.5487 28.5569L37.7164 18.4137Z"
    fill="currentColor"
  />
</svg>
