<svg
  width="48"
  height="48"
  viewBox="0 0 48 48"
  fill="none"
  xmlns="http://www.w3.org/2000/svg"
  class="mm-icon"
>
  <path fill="currentColor" d="M0 0H48V48H0z" />
  <path
    opacity=".3"
    fill-rule="evenodd"
    clip-rule="evenodd"
    d="M24.5 3V0H23.5V3H24.5ZM24.5 5V4H23.5V5H21V6H23.5V7H24.5V6H25V5H24.5ZM10 5V6H6V5H10ZM5 6L6 5H5V6ZM5 6V9H6V6H5ZM43 9V6H42V5H41V6H42V9H43ZM24.5 8V11H23.5V8H24.5ZM43 14H42V10H43V14ZM24.5 15V12H23.5V15H24.5ZM6 15V19H5V15H6ZM43 20V24.5H40V23.5H42V20H43ZM24.5 24.5H27V23.5H24V24H23.5V27H24.5V24.5ZM42 29H43V25H42V29ZM24.5 28V31H23.5V28H24.5ZM43 34H42V30H43V34ZM24.5 35V32H23.5V35H24.5ZM43 35V39H42V35H43ZM22 42V43H26V42H24.5V40H23.5V42H22ZM6 43L5 42H6V40H5V42V43H6ZM24.5 47V44H23.5V47H24.5ZM11 42V43H7V42H11ZM16 43V42H12V43H16ZM21 42V43H17V42H21ZM31 42V43H27V42H31ZM36 43V42H32V43H36ZM41 42V43H37V42H41ZM43 43V42V40H42V42H43L42 43H43ZM6 39V35H5V39H6ZM24.5 36V39H23.5V36H24.5ZM6 34V30H5V34H6ZM6 25V29H5V25H6ZM23 23.5V24.5H20V23.5H23ZM28 24.5H31V23.5H28V24.5ZM35 24.5H32V23.5H35V24.5ZM36 24.5H39V23.5H36V24.5ZM44 24.5H47V23.5H44V24.5ZM3 23.5V24.5H0V23.5H3ZM6 23.5V20H5V23.5H4V24.5H7V23.5H6ZM19 23.5V24.5H16V23.5H19ZM15 24.5V23.5H12V24.5H15ZM11 23.5V24.5H8V23.5H11ZM24.5 23V20H23.5V23H24.5ZM43 19V15H42V19H43ZM24.5 16V19H23.5V16H24.5ZM6 14V10H5V14H6ZM40 6V5H36V6H40ZM35 5V6H31V5H35ZM30 6V5H26V6H30ZM20 5V6H16V5H20ZM15 6V5H11V6H15Z"
    fill="currentColor"
  />
</svg>
