<svg
  width="48"
  height="48"
  viewBox="0 0 48 48"
  fill="none"
  xmlns="http://www.w3.org/2000/svg"
  class="mm-icon"
>
  <path
    fill-rule="evenodd"
    clip-rule="evenodd"
    d="M35.1997 8C37.8506 8 39.9998 10.149 39.9998 12.8V25.6C39.9998 27.9786 38.2696 29.953 35.9993 30.3338L35.9997 19.2C35.9997 15.2235 32.7762 12 28.7997 12L17.666 12.0005C18.0467 9.73007 20.0212 8 22.3997 8H35.1997Z"
    fill="currentColor"
    fill-opacity=".3"
  />
  <path
    fill-rule="evenodd"
    clip-rule="evenodd"
    d="M33.6 19.2C33.6 16.5491 31.451 14.4 28.8 14.4H12.8C10.149 14.4 8 16.5491 8 19.2V35.2C8 37.851 10.149 40 12.8 40H28.8C31.451 40 33.6 37.851 33.6 35.2V19.2ZM19.738 20.9018C20.0099 20.5274 20.3639 20.2269 20.7999 20C21.2359 20.2268 21.5898 20.5274 21.8618 20.9018C22.8012 22.1947 23.0014 23.7992 22.5393 25.2091C23.7402 24.3361 25.3282 24.0307 26.8482 24.5246C27.2887 24.6677 27.6842 24.9118 28.034 25.2565C27.9529 25.741 27.7764 26.1703 27.5045 26.5445C26.5653 27.8373 25.1015 28.5235 23.6179 28.5203C24.8189 29.3927 25.5999 30.8084 25.5999 32.4064C25.5999 32.8686 25.4904 33.3193 25.2719 33.76C24.7854 33.8329 24.322 33.7979 23.8817 33.6548C22.3632 33.1614 21.2588 31.9829 20.8005 30.5723C20.3412 31.9827 19.2367 33.1613 17.7181 33.6548C17.2796 33.7972 16.8183 33.8326 16.3289 33.7602C16.1096 33.3204 15.9999 32.8692 15.9999 32.4064C15.9999 30.8085 16.7807 29.3929 17.9816 28.5235C16.4975 28.5232 15.0342 27.837 14.0952 26.5445C13.8231 26.1699 13.6465 25.74 13.5664 25.2552C13.9167 24.911 14.3117 24.6675 14.7515 24.5246C16.2716 24.0307 17.8595 24.3361 19.0573 25.2111C18.5983 23.7992 18.7986 22.1947 19.738 20.9018Z"
    fill="currentColor"
  />
</svg>
