<svg
  width="48"
  height="48"
  viewBox="0 0 48 48"
  fill="none"
  xmlns="http://www.w3.org/2000/svg"
  class="mm-icon"
>
  <path
    fill-rule="evenodd"
    clip-rule="evenodd"
    d="M41.5 24C41.5 14.0589 33.4412 6 23.5 6C18.1237 6 13.298 8.35702 9.99974 12.0941L10 7H6V18.5C6 18.7761 6.22386 19 6.5 19H18V15L12.7757 15.0001C15.3438 11.9431 19.195 10 23.5 10C31.232 10 37.5 16.268 37.5 24C37.5 31.732 31.232 38 23.5 38C19.1494 38 15.2622 36.0154 12.6944 32.9022L9.04474 34.7278C12.3252 39.1408 17.5787 42 23.5 42C33.4412 42 41.5 33.9412 41.5 24ZM17.6959 20.5C18.4183 20.5 19.0717 20.6852 19.6561 21.0556C20.2405 21.426 20.6958 21.9496 21.0219 22.6266C21.3479 23.3035 21.516 24.0839 21.526 24.9677V25.7881C21.526 27.0194 21.289 27.948 20.8149 28.8524C20.3409 29.7566 19.737 30.3566 18.8591 30.8418C17.9812 31.3272 16.8858 31.5 15.7169 31.5H15.5589V29.431L16.0405 29.4232C17.7862 29.3364 18.7569 28.8432 18.9526 27.3362C18.4058 27.8369 17.7937 28.0872 17.1165 28.0872C16.1232 28.0872 15.3356 27.7449 14.7537 27.0602C14.1718 26.3756 13.8809 25.6293 13.8809 24.4849C13.8809 23.7697 14.0439 23.1055 14.37 22.4924C14.696 21.8794 15.1538 21.394 15.7432 21.0364C16.3327 20.6788 16.9836 20.5 17.6959 20.5ZM29.4884 21.7415C28.8212 20.919 27.8806 20.5077 26.6666 20.5077C25.4526 20.5077 24.5133 20.9164 23.8486 21.7338C23.1839 22.5512 22.8516 23.7135 22.8516 25.2206V26.7104C22.8516 28.2073 23.1852 29.3671 23.8524 30.1896C24.5196 31.0121 25.4626 31.4234 26.6816 31.4234C27.8907 31.4234 28.8275 31.0147 29.4922 30.1972C30.1569 29.3799 30.4892 28.2176 30.4892 26.7104V25.2283C30.4892 23.7263 30.1556 22.564 29.4884 21.7415ZM34.887 21.1361C34.478 20.7172 33.9928 20.5077 33.4308 20.5077C32.859 20.5077 32.3636 20.7172 31.9448 21.1361C31.5259 21.555 31.3164 22.0633 31.3164 22.6611C31.3164 23.2537 31.5233 23.7556 31.9372 24.1669C32.351 24.5782 32.849 24.7838 33.4308 24.7838C34.0028 24.7838 34.4906 24.5782 34.8944 24.1669C35.2983 23.7556 35.5002 23.2537 35.5002 22.6611C35.5002 22.0633 35.2958 21.555 34.887 21.1361ZM33.4306 21.6802C33.1647 21.6802 32.9402 21.776 32.757 21.9675C32.574 22.1591 32.4824 22.3903 32.4824 22.6611C32.4824 22.9318 32.5764 23.1579 32.7646 23.3393C32.9527 23.5206 33.1747 23.6113 33.4306 23.6113C33.6964 23.6113 33.9146 23.5194 34.0852 23.3354C34.2557 23.1515 34.341 22.9267 34.341 22.6611C34.341 22.3954 34.2558 22.1655 34.0852 21.9714C33.9146 21.7772 33.6964 21.6802 33.4306 21.6802ZM16.6829 23.0748C16.9237 22.6866 17.3241 22.4924 17.6803 22.4924C18.0816 22.4924 18.4002 22.6636 18.6359 23.0059C18.8717 23.3482 19.0006 23.8487 19.0006 24.2796C19.0006 24.7104 18.952 25.0711 18.7864 25.5096C18.6209 25.948 18.1275 26.225 17.7029 26.225C17.2765 26.225 16.9362 26.0526 16.6904 25.7077C16.4446 25.3628 16.3438 25.0673 16.3438 24.4849C16.3438 23.9331 16.4421 23.4631 16.6829 23.0748ZM25.7143 23.0519C25.9125 22.684 26.2298 22.5001 26.6662 22.5001C27.1126 22.5001 27.4388 22.6981 27.6444 23.094C27.8501 23.49 27.953 24.089 27.953 24.8911V27.1012C27.9479 27.9033 27.8426 28.4921 27.637 28.8676C27.4312 29.2432 27.1126 29.431 26.6812 29.431C26.2348 29.431 25.9087 29.238 25.703 28.8524C25.4974 28.4667 25.3945 27.8574 25.3945 27.0246V24.7225C25.4096 23.9766 25.5162 23.4197 25.7143 23.0519ZM12.0224 25.1843V27.1844H7.5V25.1843H12.0224Z"
    fill="currentColor"
  />
</svg>
